<?xml version="1.0" standalone="no"?>
<!DOCTYPE svg PUBLIC "-//W3C//DTD SVG 20010904//EN"
 "http://www.w3.org/TR/2001/REC-SVG-20010904/DTD/svg10.dtd">
<svg version="1.0" xmlns="http://www.w3.org/2000/svg"
 width="300.000000pt" height="300.000000pt" viewBox="0 0 300.000000 300.000000"
 preserveAspectRatio="xMidYMid meet">
<metadata>
Created by potrace 1.11, written by Peter Selinger 2001-2013
</metadata>
<g transform="translate(0.000000,300.000000) scale(0.100000,-0.100000)"
fill="#000000" stroke="none">
<path d="M1090 2750 c-6 -4 -11 -10 -11 -14 3 -24 -1 -36 -10 -31 -5 4 -18 0
-27 -8 -9 -8 -25 -13 -34 -12 -16 3 -23 -6 -19 -27 0 -5 -6 -8 -14 -8 -8 0
-16 -4 -16 -10 -1 -5 -2 -16 -3 -22 0 -7 -12 -13 -26 -13 -14 0 -29 -6 -33
-12 -4 -7 -21 -13 -37 -13 -17 0 -30 -4 -30 -10 0 -5 -9 -10 -20 -10 -16 0
-20 -7 -20 -30 0 -19 -5 -30 -12 -29 -28 3 -33 -2 -33 -33 0 -22 -5 -33 -15
-34 -34 -2 -39 -5 -42 -21 -2 -10 -12 -18 -23 -18 -16 0 -20 -7 -20 -32 0 -28
-4 -33 -22 -33 -20 0 -23 -5 -23 -35 0 -28 -5 -37 -24 -45 -22 -8 -25 -15 -22
-49 4 -48 -2 -58 -34 -62 -23 -4 -25 -8 -24 -56 1 -45 -2 -53 -18 -53 -20 0
-20 -1 -24 -80 -1 -30 -2 -65 -3 -77 -1 -19 -7 -23 -31 -23 -20 0 -30 -5 -30
-15 0 -10 -7 -15 -17 -13 -15 3 -18 -5 -19 -49 l-1 -53 37 3 c56 5 75 -5 75
-39 0 -24 4 -29 25 -31 14 0 30 -1 37 -2 6 -1 13 -11 15 -23 l3 -23 340 -1
c187 -1 345 -2 350 -3 6 0 12 -12 13 -26 2 -24 0 -24 -64 -24 -49 1 -63 4 -55
12 21 21 11 28 -36 25 -38 -2 -47 -7 -45 -19 2 -15 -14 -16 -140 -15 -79 1
-149 0 -155 -2 -10 -3 -13 -84 -12 -348 0 -381 -6 -346 59 -346 37 0 40 2 40
27 0 24 2 25 75 25 73 0 75 1 75 24 0 24 3 25 68 24 130 -1 132 0 132 26 0 23
2 24 73 23 71 -2 72 -2 75 26 l3 27 99 0 c95 0 99 1 102 23 3 21 7 22 96 22
76 -1 92 2 93 15 0 8 1 87 2 175 1 158 1 160 -21 163 -20 3 -22 9 -22 73 l0
69 -67 0 c-395 2 -381 1 -374 49 0 6 89 9 209 9 114 0 213 1 220 1 20 2 12
146 -8 147 -8 1 -20 2 -25 2 -6 1 -11 21 -10 45 0 38 -2 42 -25 42 -24 0 -25
3 -28 62 l-3 61 33 -1 c35 -2 33 1 37 -76 1 -24 5 -28 21 -24 17 5 20 0 20
-31 0 -32 3 -36 25 -36 21 0 25 -5 26 -32 1 -18 1 -41 0 -50 -2 -13 5 -18 25
-18 21 0 25 -4 21 -20 -7 -26 2 -31 58 -32 41 0 45 -3 45 -25 0 -22 -3 -23
-47 -21 l-48 3 0 -275 c0 -256 1 -275 18 -274 9 1 31 2 47 3 32 1 40 18 14 28
-9 3 -20 0 -26 -8 -7 -11 -8 -10 -6 5 3 17 13 19 98 20 l95 1 0 215 c1 118 -3
220 -8 227 -4 6 -15 9 -23 6 -14 -5 -16 -2 -18 57 -1 37 4 35 -78 39 -12 1
-18 9 -18 26 0 21 5 25 28 25 l27 0 0 130 c0 115 -2 131 -17 136 -10 3 -22 2
-28 -1 -6 -4 -10 13 -10 44 0 44 -3 50 -22 53 -19 2 -22 8 -20 31 3 24 0 27
-27 27 -25 0 -31 4 -31 21 0 15 -5 20 -22 17 -20 -3 -23 2 -24 37 -2 63 -3 63
-26 67 -16 2 -22 9 -20 21 2 13 -4 17 -28 17 -25 0 -30 4 -30 25 0 20 -5 25
-25 25 -20 0 -25 5 -25 25 0 20 -5 25 -25 25 -20 0 -25 5 -25 25 0 20 -5 25
-25 25 -20 0 -25 5 -25 25 0 20 -5 25 -25 25 -18 0 -25 5 -25 20 0 16 -7 20
-30 20 -28 0 -30 2 -30 40 0 35 -4 42 -27 52 -40 17 -57 15 -61 -4 -2 -10 3
-18 10 -18 9 0 13 -13 13 -42 -2 -60 2 -66 41 -63 l34 2 0 -54 c0 -52 0 -53
30 -53 27 0 30 -3 26 -25 -4 -21 -1 -25 20 -25 22 0 24 -4 24 -50 0 -48 1 -50
24 -46 24 4 24 4 23 -72 -2 -75 -3 -77 -26 -77 -23 0 -25 3 -24 48 1 46 0 47
-28 47 l-29 0 0 65 c0 62 -1 65 -24 65 -21 0 -25 6 -28 33 -2 24 -8 32 -23 32
-15 0 -20 7 -20 25 0 18 -6 26 -22 28 -20 3 -23 9 -23 53 0 47 -1 49 -27 49
-27 0 -28 2 -28 48 l0 47 -47 -1 c-46 -1 -48 0 -48 26 0 29 -26 45 -50 30z
m55 -175 c0 -65 -2 -70 -22 -73 -21 -3 -23 -9 -24 -60 -1 -31 0 -69 1 -84 1
-24 -2 -28 -24 -28 -24 0 -26 -3 -26 -45 0 -43 -2 -45 -28 -45 -27 0 -28 -2
-27 -47 0 -41 -3 -48 -20 -48 -17 0 -20 -8 -23 -46 -3 -42 -6 -47 -31 -52 -26
-5 -28 -9 -26 -51 2 -35 -1 -45 -15 -49 -15 -4 -18 -16 -18 -72 0 -72 -8 -85
-48 -77 -23 4 -24 2 -24 -47 0 -49 -1 -51 -27 -50 -24 2 -25 2 -5 6 27 5 31
43 4 43 -16 0 -19 9 -21 50 -1 47 0 50 24 50 24 0 25 3 25 55 0 53 1 55 24 51
23 -4 23 -3 22 70 -1 45 2 74 9 75 5 1 17 2 25 3 11 1 15 14 15 51 0 32 5 50
13 51 6 1 19 2 27 3 11 1 15 13 15 46 0 41 2 45 25 45 25 0 30 10 25 53 -1 9
2 17 7 16 4 -1 20 -1 35 0 l27 1 -1 98 c-2 89 0 97 18 100 16 2 19 9 16 41 -4
36 -2 38 25 37 l28 -1 0 -70z m-35 -1017 c0 -4 -11 -8 -25 -8 -14 0 -25 4 -25
8 0 4 11 8 25 8 14 0 25 -4 25 -8z"/>
<path d="M757 1833 c-12 -11 -8 -23 8 -23 8 0 15 7 15 15 0 16 -12 20 -23 8z"/>
<path d="M500 1630 c0 -5 -1 -13 -2 -17 -2 -3 5 -7 15 -9 11 -1 17 4 17 17 0
10 -7 19 -15 19 -8 0 -15 -4 -15 -10z"/>
<path d="M294 1611 c-2 -2 -4 -107 -4 -232 l0 -228 -22 -3 c-23 -3 -23 -3 -24
-215 0 -117 3 -214 8 -214 4 -1 18 -2 31 -3 20 -1 22 -7 25 -64 3 -56 1 -63
-15 -62 -48 5 -50 2 -49 -57 1 -54 3 -58 26 -62 29 -4 40 -17 35 -43 -3 -16 4
-18 65 -18 64 0 69 2 72 22 2 13 6 22 11 21 4 -2 27 -3 52 -3 38 0 45 -3 45
-19 0 -17 -8 -20 -52 -23 -49 -3 -53 -5 -53 -28 0 -23 4 -25 50 -25 47 0 50 2
53 27 3 24 8 28 33 28 26 0 29 -3 29 -30 l0 -30 60 0 60 0 0 30 c0 27 3 30 31
30 27 0 30 3 29 28 -1 15 -2 42 -1 60 l1 32 60 0 60 0 0 31 c0 28 2 30 31 27
31 -3 31 -4 33 -61 l1 -57 -33 0 c-31 0 -33 -2 -30 -32 3 -29 6 -33 31 -30 24
3 27 0 27 -27 l0 -31 180 0 180 0 0 29 c0 29 -2 30 -47 29 -27 0 -54 0 -60 1
-10 1 -13 32 -13 120 l0 120 28 3 c23 3 27 8 27 33 0 26 -3 30 -27 29 -25 -1
-28 2 -28 31 l0 33 -87 -2 -87 -1 -1 -27 c-2 -32 4 -35 68 -33 37 2 47 -1 48
-14 1 -16 1 -281 0 -292 -1 -4 -79 -4 -112 0 -3 1 -5 54 -4 119 1 163 -4 186
-35 186 -21 1 -26 -5 -28 -32 -3 -28 -7 -32 -33 -32 -23 0 -30 -4 -28 -17 4
-40 0 -43 -61 -43 l-60 0 0 -30 c0 -27 -3 -30 -30 -30 l-30 0 0 -60 0 -60 -59
0 -59 0 -4 33 c-6 57 0 67 41 67 l38 0 1 68 c0 135 0 138 22 139 16 1 20 -4
20 -33 0 -31 2 -34 31 -34 28 0 30 2 27 33 -2 27 -7 32 -28 32 -21 0 -26 5
-28 33 -2 24 -7 32 -17 28 -8 -3 -18 0 -21 6 -4 6 -7 182 -6 390 l0 378 -114
0 c-104 0 -115 2 -113 18 4 46 3 47 -82 47 -44 0 -83 -2 -85 -4z m316 -774 l0
-63 41 3 c40 3 40 3 37 -29 -3 -30 -6 -33 -38 -33 l-35 0 -3 -93 -3 -92 -148
0 c-156 0 -167 3 -151 45 7 19 16 20 124 19 l117 -1 -3 61 -3 61 -117 0 c-89
-1 -118 2 -119 12 -5 50 -9 48 86 50 50 1 105 2 123 2 l32 1 0 60 0 60 30 0
30 0 0 -63z"/>
<path d="M1628 962 c-2 -30 -1 -57 2 -61 4 -5 99 -7 120 -2 3 0 5 27 4 58 l0
58 -61 0 -61 1 -4 -54z"/>
<path d="M1394 888 c-3 -5 -4 -29 -3 -55 4 -54 -9 -63 -79 -56 l-43 4 3 -33 3
-33 58 0 57 1 1 -111 c0 -60 0 -129 -1 -152 -2 -43 -1 -43 34 -43 33 0 35 -2
31 -30 l-4 -30 270 0 270 0 -3 28 -3 27 -117 0 -118 -1 0 63 0 63 119 0 c118
0 119 0 123 25 3 13 3 27 0 30 -3 3 -59 5 -124 5 l-118 0 0 63 0 63 123 -1
122 0 0 -30 c0 -27 3 -30 30 -30 27 0 30 3 30 30 l0 30 90 0 90 0 0 -30 c0
-27 -4 -30 -33 -33 -29 -3 -32 -6 -29 -30 3 -18 10 -27 23 -28 10 -1 24 -2 29
-3 6 -1 11 -28 12 -61 1 -60 1 -60 -28 -60 -16 0 -30 -6 -31 -12 0 -7 -2 -19
-2 -27 -1 -18 -32 -29 -73 -24 -23 2 -35 -2 -42 -15 -17 -31 1 -43 60 -40 52
3 54 4 52 31 -2 26 0 28 30 25 18 -2 33 -9 33 -15 1 -7 2 -20 3 -28 1 -12 21
-15 119 -15 117 0 119 0 116 22 -1 13 -3 27 -3 31 -1 5 -9 7 -18 6 -41 -4 -42
-2 -42 124 l0 122 32 0 c27 0 31 4 31 25 0 24 2 25 91 30 89 5 90 5 93 33 2
15 0 27 -5 28 -4 0 -46 1 -93 1 l-85 1 0 -29 c0 -26 -4 -29 -33 -32 -23 -2
-33 1 -31 10 6 50 1 55 -56 54 l-55 -1 0 -33 c0 -31 -2 -33 -32 -29 -29 3 -33
7 -33 33 l0 29 -390 0 -390 1 -1 44 c-1 25 -2 52 -3 61 -1 16 -48 22 -57 7z
m296 -179 c4 -6 4 -191 1 -282 -1 -14 -8 -18 -28 -15 -22 2 -28 8 -28 28 0 21
-5 25 -30 25 -26 0 -30 -3 -29 -28 l1 -28 -61 3 -61 3 -1 145 c-1 80 2 147 7
150 12 8 223 7 229 -1z m665 -148 l0 -149 -27 -4 c-31 -5 -29 -15 -29 132 -1
179 -2 170 29 170 l27 0 0 -149z"/>
<path d="M795 770 c-1 -3 -3 -16 -3 -31 0 -25 1 -25 87 -24 l86 1 3 31 3 31
-86 -1 c-48 -1 -88 -4 -90 -7z"/>
<path d="M2658 558 l-3 -153 -25 0 c-20 0 -26 -6 -28 -27 l-3 -28 90 0 91 0 0
29 c0 24 -4 29 -18 26 -41 -8 -45 7 -46 157 l-1 143 -27 3 -27 3 -3 -153z"/>
<path d="M2083 592 c-18 -3 -23 -10 -23 -32 0 -25 -4 -29 -32 -32 -32 -3 -32
-3 -33 -60 -1 -32 1 -58 4 -59 61 -9 61 -9 61 58 l0 63 38 1 c20 1 41 1 46 0
24 -5 34 9 27 35 -7 28 -29 34 -88 26z"/>
<path d="M795 401 c-3 -2 -5 -15 -5 -28 0 -22 4 -23 60 -23 59 0 60 0 60 28 0
27 -1 28 -55 28 -31 0 -58 -2 -60 -5z"/>
</g>
</svg>
